<svg width="303" height="95" viewBox="0 0 303 95" fill="none" xmlns="http://www.w3.org/2000/svg">
<g clip-path="url(#clip0_70_14)">
<mask id="mask0_70_14" style="mask-type:luminance" maskUnits="userSpaceOnUse" x="0" y="0" width="303" height="95">
<path d="M0 0H302.362V94.4882H0V0Z" fill="white"/>
</mask>
<g mask="url(#mask0_70_14)">
<path d="M12.9976 25.884H17.8882V55.884H36.4351V60.134H12.9976V25.884ZM52.1365 60.4308C49.5531 60.4308 47.2354 59.8631 45.1833 58.7277C43.1313 57.5819 41.5271 56.009 40.3708 54.009C39.2146 51.9986 38.6365 49.7173 38.6365 47.1652C38.6365 44.6236 39.2146 42.3527 40.3708 40.3527C41.5271 38.3423 43.1313 36.7746 45.1833 35.6496C47.2354 34.5246 49.5531 33.9621 52.1365 33.9621C54.7094 33.9621 57.0115 34.5246 59.0427 35.6496C61.0844 36.7746 62.6833 38.3423 63.8396 40.3527C65.0063 42.3527 65.5896 44.6236 65.5896 47.1652C65.5896 49.7173 65.0063 51.9986 63.8396 54.009C62.6833 56.009 61.0844 57.5819 59.0427 58.7277C57.0115 59.8631 54.7094 60.4308 52.1365 60.4308ZM52.1365 56.3215C53.7927 56.3215 55.2823 55.9413 56.6052 55.1808C57.9281 54.41 58.9646 53.3319 59.7146 51.9465C60.4646 50.5506 60.8396 48.9569 60.8396 47.1652C60.8396 45.3736 60.4646 43.785 59.7146 42.3996C58.9646 41.0142 57.9281 39.9465 56.6052 39.1965C55.2823 38.4465 53.7927 38.0715 52.1365 38.0715C50.4698 38.0715 48.975 38.4465 47.6521 39.1965C46.3292 39.9465 45.2823 41.0142 44.5115 42.3996C43.7511 43.785 43.3708 45.3736 43.3708 47.1652C43.3708 48.9569 43.7511 50.5506 44.5115 51.9465C45.2823 53.3319 46.3292 54.41 47.6521 55.1808C48.975 55.9413 50.4698 56.3215 52.1365 56.3215ZM83.2018 60.4308C80.6185 60.4308 78.3008 59.8631 76.2487 58.7277C74.1966 57.5819 72.5925 56.009 71.4362 54.009C70.28 51.9986 69.7018 49.7173 69.7018 47.1652C69.7018 44.6236 70.28 42.3527 71.4362 40.3527C72.5925 38.3423 74.1966 36.7746 76.2487 35.6496C78.3008 34.5246 80.6185 33.9621 83.2018 33.9621C85.7747 33.9621 88.0768 34.5246 90.1081 35.6496C92.1497 36.7746 93.7487 38.3423 94.905 40.3527C96.0716 42.3527 96.655 44.6236 96.655 47.1652C96.655 49.7173 96.0716 51.9986 94.905 54.009C93.7487 56.009 92.1497 57.5819 90.1081 58.7277C88.0768 59.8631 85.7747 60.4308 83.2018 60.4308ZM83.2018 56.3215C84.8581 56.3215 86.3477 55.9413 87.6706 55.1808C88.9935 54.41 90.03 53.3319 90.78 51.9465C91.53 50.5506 91.905 48.9569 91.905 47.1652C91.905 45.3736 91.53 43.785 90.78 42.3996C90.03 41.0142 88.9935 39.9465 87.6706 39.1965C86.3477 38.4465 84.8581 38.0715 83.2018 38.0715C81.5352 38.0715 80.0404 38.4465 78.7175 39.1965C77.3945 39.9465 76.3477 41.0142 75.5768 42.3996C74.8164 43.785 74.4362 45.3736 74.4362 47.1652C74.4362 48.9569 74.8164 50.5506 75.5768 51.9465C76.3477 53.3319 77.3945 54.41 78.7175 55.1808C80.0404 55.9413 81.5352 56.3215 83.2018 56.3215ZM116.908 33.9621C119.418 33.9621 121.668 34.5194 123.658 35.634C125.647 36.7381 127.205 38.285 128.33 40.2746C129.455 42.2642 130.017 44.5611 130.017 47.1652C130.017 49.7798 129.455 52.0923 128.33 54.1027C127.205 56.1027 125.647 57.66 123.658 58.7746C121.668 59.8788 119.418 60.4308 116.908 60.4308C115.043 60.4308 113.335 60.0715 111.783 59.3527C110.241 58.634 108.929 57.5923 107.845 56.2277V69.6183H103.158V34.2121H107.658V38.3215C108.699 36.884 110.017 35.8006 111.611 35.0715C113.215 34.3319 114.981 33.9621 116.908 33.9621ZM116.517 56.3215C118.173 56.3215 119.663 55.9413 120.986 55.1808C122.309 54.41 123.351 53.3319 124.111 51.9465C124.882 50.5506 125.267 48.9569 125.267 47.1652C125.267 45.3736 124.882 43.785 124.111 42.3996C123.351 41.0142 122.309 39.9465 120.986 39.1965C119.663 38.4465 118.173 38.0715 116.517 38.0715C114.882 38.0715 113.403 38.4569 112.08 39.2277C110.767 39.9881 109.726 41.0558 108.955 42.4308C108.184 43.7954 107.798 45.3736 107.798 47.1652C107.798 48.9569 108.173 50.5506 108.923 51.9465C109.673 53.3319 110.715 54.41 112.048 55.1808C113.392 55.9413 114.882 56.3215 116.517 56.3215Z" fill="#FF9900"/>
<path d="M151.241 29.8527C148.116 29.8527 145.762 30.5611 144.179 31.9777C142.595 33.3944 141.804 35.4569 141.804 38.1652V42.0871H157.46V46.2902H141.804V60.134H136.913V38.1183C136.913 34.1704 138.158 31.0819 140.647 28.8527C143.147 26.6131 146.632 25.4933 151.101 25.4933C153.059 25.4933 154.882 25.7173 156.569 26.1652C158.267 26.6027 159.736 27.2433 160.976 28.0871L159.366 32.1496C157.179 30.6183 154.47 29.8527 151.241 29.8527ZM169.69 38.5558C170.503 37.0558 171.706 35.9152 173.3 35.134C174.904 34.3527 176.847 33.9621 179.128 33.9621V38.509C178.867 38.4777 178.508 38.4621 178.05 38.4621C175.508 38.4621 173.508 39.2225 172.05 40.7433C170.602 42.2538 169.878 44.41 169.878 47.2121V60.134H165.19V34.2121H169.69V38.5558ZM209.114 34.2121V60.134H204.614V56.0246C203.573 57.4621 202.25 58.5558 200.646 59.3058C199.052 60.0558 197.297 60.4308 195.38 60.4308C192.869 60.4308 190.619 59.8788 188.63 58.7746C186.64 57.66 185.083 56.1027 183.958 54.1027C182.833 52.0923 182.271 49.7798 182.271 47.1652C182.271 44.5611 182.833 42.2642 183.958 40.2746C185.083 38.285 186.64 36.7381 188.63 35.634C190.619 34.5194 192.869 33.9621 195.38 33.9621C197.234 33.9621 198.942 34.3163 200.505 35.0246C202.078 35.7225 203.385 36.7538 204.427 38.1183V34.2121H209.114ZM195.771 56.3215C197.396 56.3215 198.875 55.9413 200.208 55.1808C201.552 54.41 202.599 53.3319 203.349 51.9465C204.099 50.5506 204.474 48.9569 204.474 47.1652C204.474 45.3736 204.099 43.785 203.349 42.3996C202.599 41.0142 201.552 39.9465 200.208 39.1965C198.875 38.4465 197.396 38.0715 195.771 38.0715C194.104 38.0715 192.609 38.4465 191.286 39.1965C189.963 39.9465 188.916 41.0142 188.146 42.3996C187.385 43.785 187.005 45.3736 187.005 47.1652C187.005 48.9569 187.385 50.5506 188.146 51.9465C188.916 53.3319 189.963 54.41 191.286 55.1808C192.609 55.9413 194.104 56.3215 195.771 56.3215ZM250.463 33.9621C253.724 33.9621 256.307 34.91 258.213 36.8058C260.12 38.6913 261.073 41.4933 261.073 45.2121V60.134H256.385V45.7433C256.385 43.2329 255.802 41.3423 254.635 40.0715C253.479 38.8006 251.828 38.1652 249.682 38.1652C247.297 38.1652 245.401 38.91 243.995 40.3996C242.599 41.8788 241.901 44.0038 241.901 46.7746V60.134H237.198V45.7433C237.198 43.2329 236.62 41.3423 235.463 40.0715C234.307 38.8006 232.651 38.1652 230.495 38.1652C228.12 38.1652 226.229 38.91 224.823 40.3996C223.416 41.8788 222.713 44.0038 222.713 46.7746V60.134H218.026V34.2121H222.526V38.0715C223.474 36.7381 224.713 35.7225 226.245 35.0246C227.776 34.3163 229.521 33.9621 231.479 33.9621C233.5 33.9621 235.291 34.3683 236.854 35.1808C238.427 35.9933 239.635 37.1861 240.479 38.759C241.458 37.259 242.818 36.0871 244.557 35.2433C246.307 34.3892 248.276 33.9621 250.463 33.9621ZM281.571 56.3215C284.675 56.3215 287.169 55.2746 289.055 53.1808L291.602 56.2277C290.456 57.5923 289.008 58.634 287.258 59.3527C285.518 60.0715 283.576 60.4308 281.43 60.4308C278.69 60.4308 276.258 59.8683 274.133 58.7433C272.018 57.6183 270.383 56.0454 269.227 54.0246C268.071 52.0038 267.492 49.7173 267.492 47.1652C267.492 44.6548 268.055 42.3892 269.18 40.3683C270.305 38.3475 271.852 36.7746 273.821 35.6496C275.789 34.5246 278.013 33.9621 280.492 33.9621C282.847 33.9621 284.982 34.4933 286.899 35.5558C288.826 36.6079 290.357 38.0975 291.492 40.0246C292.638 41.9517 293.232 44.1704 293.274 46.6808L272.664 50.6965C273.321 52.4881 274.419 53.8736 275.961 54.8527C277.513 55.8319 279.383 56.3215 281.571 56.3215ZM280.492 37.9308C278.867 37.9308 277.409 38.3058 276.117 39.0558C274.826 39.8058 273.821 40.8579 273.102 42.2121C272.393 43.5558 272.039 45.1288 272.039 46.9308V47.4152L288.617 44.2902C288.19 42.3944 287.242 40.8631 285.774 39.6965C284.315 38.5194 282.555 37.9308 280.492 37.9308Z" fill="white"/>
<path d="M139.533 76.3586C141.085 76.3586 142.309 76.7336 143.205 77.4836C144.101 78.2232 144.549 79.2441 144.549 80.5461C144.549 81.8586 144.101 82.8899 143.205 83.6399C142.309 84.3795 141.085 84.7493 139.533 84.7493H136.564V88.3899H134.845V76.3586H139.533ZM139.486 83.2493C140.569 83.2493 141.398 83.0201 141.97 82.5618C142.543 82.093 142.83 81.4211 142.83 80.5461C142.83 79.6816 142.543 79.0201 141.97 78.5618C141.398 78.093 140.569 77.8586 139.486 77.8586H136.564V83.2493H139.486ZM148.256 80.8118C148.548 80.2805 148.975 79.8795 149.537 79.6086C150.1 79.3274 150.782 79.1868 151.584 79.1868V80.7961C151.491 80.7857 151.36 80.7805 151.194 80.7805C150.308 80.7805 149.61 81.0461 149.1 81.5774C148.59 82.1086 148.334 82.8691 148.334 83.8586V88.3899H146.678V79.2805H148.256V80.8118ZM153.605 79.2805H155.261V88.3899H153.605V79.2805ZM154.433 77.5305C154.11 77.5305 153.839 77.4264 153.62 77.218C153.412 77.0097 153.308 76.7597 153.308 76.468C153.308 76.1659 153.412 75.9107 153.62 75.7024C153.839 75.4836 154.11 75.3743 154.433 75.3743C154.756 75.3743 155.021 75.4784 155.23 75.6868C155.438 75.8847 155.542 76.1295 155.542 76.4211C155.542 76.7336 155.438 76.9993 155.23 77.218C155.021 77.4264 154.756 77.5305 154.433 77.5305ZM166.462 79.2805L162.478 88.3899H160.791L156.806 79.2805H158.525L161.65 86.5774L164.853 79.2805H166.462ZM176.344 79.2805V88.3899H174.765V86.9524C174.401 87.4524 173.937 87.8378 173.375 88.1086C172.812 88.3691 172.193 88.4993 171.515 88.4993C170.63 88.4993 169.838 88.3066 169.14 87.9211C168.443 87.5253 167.896 86.9732 167.5 86.2649C167.104 85.5566 166.906 84.7441 166.906 83.8274C166.906 82.9107 167.104 82.1034 167.5 81.4055C167.896 80.7076 168.443 80.1659 169.14 79.7805C169.838 79.3847 170.63 79.1868 171.515 79.1868C172.172 79.1868 172.771 79.3118 173.312 79.5618C173.864 79.8118 174.328 80.1764 174.703 80.6555V79.2805H176.344ZM171.656 87.0461C172.229 87.0461 172.75 86.9107 173.219 86.6399C173.687 86.3691 174.052 85.9941 174.312 85.5149C174.583 85.0253 174.719 84.4628 174.719 83.8274C174.719 83.2024 174.583 82.6451 174.312 82.1555C174.052 81.6659 173.687 81.2909 173.219 81.0305C172.75 80.7701 172.229 80.6399 171.656 80.6399C171.073 80.6399 170.547 80.7701 170.078 81.0305C169.62 81.2909 169.255 81.6659 168.984 82.1555C168.713 82.6451 168.578 83.2024 168.578 83.8274C168.578 84.4628 168.713 85.0253 168.984 85.5149C169.255 85.9941 169.62 86.3691 170.078 86.6399C170.547 86.9107 171.073 87.0461 171.656 87.0461ZM183.441 88.4993C182.513 88.4993 181.685 88.3014 180.956 87.9055C180.227 87.4993 179.654 86.942 179.237 86.2336C178.831 85.5253 178.628 84.7232 178.628 83.8274C178.628 82.942 178.831 82.1451 179.237 81.4368C179.654 80.7284 180.227 80.1764 180.956 79.7805C181.685 79.3847 182.513 79.1868 183.441 79.1868C184.263 79.1868 184.998 79.3534 185.644 79.6868C186.3 80.0201 186.805 80.5045 187.159 81.1399L185.909 81.9368C185.618 81.5097 185.258 81.1868 184.831 80.968C184.414 80.7493 183.946 80.6399 183.425 80.6399C182.831 80.6399 182.295 80.7701 181.816 81.0305C181.347 81.2909 180.977 81.6659 180.706 82.1555C180.435 82.6451 180.3 83.2024 180.3 83.8274C180.3 84.4732 180.435 85.0409 180.706 85.5305C180.977 86.0201 181.347 86.3951 181.816 86.6555C182.295 86.9159 182.831 87.0461 183.425 87.0461C183.946 87.0461 184.414 86.9368 184.831 86.718C185.258 86.4993 185.618 86.1764 185.909 85.7493L187.159 86.5305C186.805 87.1659 186.3 87.6555 185.644 87.9993C184.998 88.3326 184.263 88.4993 183.441 88.4993ZM197.786 79.2805V87.1555C197.786 88.7493 197.411 89.9264 196.661 90.6868C195.921 91.4472 194.807 91.8274 193.317 91.8274C192.494 91.8274 191.713 91.7076 190.973 91.468C190.244 91.2389 189.64 90.9055 189.161 90.468L189.973 89.2024C190.38 89.567 190.864 89.8534 191.426 90.0618C191.999 90.2701 192.598 90.3743 193.223 90.3743C194.223 90.3743 194.958 90.1243 195.426 89.6243C195.895 89.1243 196.13 88.3586 196.13 87.3274V86.6555C195.796 87.093 195.364 87.4316 194.833 87.6711C194.312 87.9003 193.739 88.0149 193.114 88.0149C191.906 88.0149 190.953 87.6816 190.255 87.0149C189.557 86.3482 189.208 85.3639 189.208 84.0618V79.2805H190.848V83.8743C190.848 84.7389 191.062 85.4003 191.489 85.8586C191.916 86.3066 192.525 86.5305 193.317 86.5305C194.182 86.5305 194.864 86.2701 195.364 85.7493C195.874 85.218 196.13 84.4732 196.13 83.5149V79.2805H197.786ZM201.344 86.1399C201.656 86.1399 201.917 86.2545 202.125 86.4836C202.344 86.7024 202.453 86.9784 202.453 87.3118C202.453 87.4784 202.432 87.6451 202.391 87.8118C202.349 87.968 202.271 88.2128 202.156 88.5461L201.359 90.9368H200.266L200.906 88.3743C200.688 88.2909 200.51 88.1555 200.375 87.968C200.25 87.7805 200.188 87.5618 200.188 87.3118C200.188 86.968 200.297 86.6868 200.516 86.468C200.734 86.2493 201.01 86.1399 201.344 86.1399ZM211.025 80.8118C211.317 80.2805 211.744 79.8795 212.306 79.6086C212.869 79.3274 213.551 79.1868 214.353 79.1868V80.7961C214.259 80.7857 214.129 80.7805 213.963 80.7805C213.077 80.7805 212.379 81.0461 211.869 81.5774C211.358 82.1086 211.103 82.8691 211.103 83.8586V88.3899H209.447V79.2805H211.025V80.8118ZM220.397 87.0461C221.491 87.0461 222.366 86.6816 223.022 85.9524L223.928 87.0149C223.522 87.4941 223.011 87.8639 222.397 88.1243C221.782 88.3743 221.1 88.4993 220.35 88.4993C219.381 88.4993 218.522 88.3014 217.772 87.9055C217.032 87.5097 216.459 86.9576 216.053 86.2493C215.647 85.5305 215.444 84.7232 215.444 83.8274C215.444 82.9524 215.642 82.1607 216.037 81.4524C216.433 80.7336 216.975 80.1764 217.662 79.7805C218.36 79.3847 219.147 79.1868 220.022 79.1868C220.845 79.1868 221.595 79.3743 222.272 79.7493C222.949 80.1243 223.485 80.6503 223.881 81.3274C224.287 82.0045 224.496 82.7805 224.506 83.6555L217.272 85.0774C217.501 85.7024 217.886 86.1868 218.428 86.5305C218.97 86.8743 219.626 87.0461 220.397 87.0461ZM220.022 80.593C219.449 80.593 218.933 80.7232 218.475 80.9836C218.027 81.2441 217.678 81.6139 217.428 82.093C217.178 82.5618 217.053 83.1139 217.053 83.7493V83.9211L222.866 82.8274C222.72 82.1607 222.386 81.6243 221.866 81.218C221.355 80.8014 220.741 80.593 220.022 80.593ZM229.9 76.8899C228.921 76.8899 228.431 77.4211 228.431 78.4836V79.2805H231.087V80.6399H228.462V88.3899H226.806V78.468C226.806 77.5618 227.067 76.8482 227.587 76.3274C228.119 75.7961 228.864 75.5305 229.822 75.5305C230.186 75.5305 230.525 75.5774 230.837 75.6711C231.16 75.7649 231.436 75.8951 231.666 76.0618L231.181 77.3274C230.796 77.0357 230.369 76.8899 229.9 76.8899ZM235.587 80.8118C235.879 80.2805 236.306 79.8795 236.868 79.6086C237.431 79.3274 238.113 79.1868 238.915 79.1868V80.7961C238.821 80.7857 238.691 80.7805 238.524 80.7805C237.639 80.7805 236.941 81.0461 236.431 81.5774C235.92 82.1086 235.665 82.8691 235.665 83.8586V88.3899H234.009V79.2805H235.587V80.8118ZM249.443 79.2805V88.3899H247.865V86.9524C247.5 87.4524 247.037 87.8378 246.474 88.1086C245.912 88.3691 245.292 88.4993 244.615 88.4993C243.73 88.4993 242.938 88.3066 242.24 87.9211C241.542 87.5253 240.995 86.9732 240.599 86.2649C240.204 85.5566 240.006 84.7441 240.006 83.8274C240.006 82.9107 240.204 82.1034 240.599 81.4055C240.995 80.7076 241.542 80.1659 242.24 79.7805C242.938 79.3847 243.73 79.1868 244.615 79.1868C245.271 79.1868 245.87 79.3118 246.412 79.5618C246.964 79.8118 247.427 80.1764 247.802 80.6555V79.2805H249.443ZM244.756 87.0461C245.329 87.0461 245.849 86.9107 246.318 86.6399C246.787 86.3691 247.151 85.9941 247.412 85.5149C247.683 85.0253 247.818 84.4628 247.818 83.8274C247.818 83.2024 247.683 82.6451 247.412 82.1555C247.151 81.6659 246.787 81.2909 246.318 81.0305C245.849 80.7701 245.329 80.6399 244.756 80.6399C244.172 80.6399 243.646 80.7701 243.177 81.0305C242.719 81.2909 242.355 81.6659 242.084 82.1555C241.813 82.6451 241.677 83.2024 241.677 83.8274C241.677 84.4628 241.813 85.0253 242.084 85.5149C242.355 85.9941 242.719 86.3691 243.177 86.6399C243.646 86.9107 244.172 87.0461 244.756 87.0461ZM263.962 79.1868C265.108 79.1868 266.014 79.5201 266.681 80.1868C267.358 80.8534 267.696 81.8378 267.696 83.1399V88.3899H266.056V83.343C266.056 82.4576 265.847 81.7909 265.431 81.343C265.024 80.8951 264.446 80.6711 263.696 80.6711C262.863 80.6711 262.196 80.9316 261.696 81.4524C261.207 81.9732 260.962 82.7232 260.962 83.7024V88.3899H259.306V83.343C259.306 82.4576 259.103 81.7909 258.696 81.343C258.29 80.8951 257.712 80.6711 256.962 80.6711C256.118 80.6711 255.451 80.9316 254.962 81.4524C254.472 81.9732 254.228 82.7232 254.228 83.7024V88.3899H252.571V79.2805H254.149V80.6399C254.483 80.1711 254.92 79.8118 255.462 79.5618C256.004 79.3118 256.618 79.1868 257.306 79.1868C258.014 79.1868 258.639 79.3326 259.181 79.6243C259.733 79.9055 260.16 80.3222 260.462 80.8743C260.806 80.3534 261.285 79.942 261.899 79.6399C262.514 79.3378 263.201 79.1868 263.962 79.1868ZM274.9 87.0461C275.993 87.0461 276.868 86.6816 277.525 85.9524L278.431 87.0149C278.025 87.4941 277.514 87.8639 276.9 88.1243C276.285 88.3743 275.603 88.4993 274.853 88.4993C273.884 88.4993 273.025 88.3014 272.275 87.9055C271.535 87.5097 270.962 86.9576 270.556 86.2493C270.15 85.5305 269.946 84.7232 269.946 83.8274C269.946 82.9524 270.144 82.1607 270.54 81.4524C270.936 80.7336 271.478 80.1764 272.165 79.7805C272.863 79.3847 273.65 79.1868 274.525 79.1868C275.347 79.1868 276.097 79.3743 276.775 79.7493C277.452 80.1243 277.988 80.6503 278.384 81.3274C278.79 82.0045 278.999 82.7805 279.009 83.6555L271.775 85.0774C272.004 85.7024 272.389 86.1868 272.931 86.5305C273.472 86.8743 274.129 87.0461 274.9 87.0461ZM274.525 80.593C273.952 80.593 273.436 80.7232 272.978 80.9836C272.53 81.2441 272.181 81.6139 271.931 82.093C271.681 82.5618 271.556 83.1139 271.556 83.7493V83.9211L277.368 82.8274C277.222 82.1607 276.889 81.6243 276.368 81.218C275.858 80.8014 275.243 80.593 274.525 80.593ZM289.903 75.6399V88.3899H288.325V86.9524C287.96 87.4524 287.497 87.8378 286.934 88.1086C286.372 88.3691 285.752 88.4993 285.075 88.4993C284.189 88.4993 283.398 88.3066 282.7 87.9211C282.002 87.5253 281.455 86.9732 281.059 86.2649C280.663 85.5566 280.465 84.7441 280.465 83.8274C280.465 82.9107 280.663 82.1034 281.059 81.4055C281.455 80.7076 282.002 80.1659 282.7 79.7805C283.398 79.3847 284.189 79.1868 285.075 79.1868C285.731 79.1868 286.33 79.3118 286.872 79.5618C287.424 79.8118 287.887 80.1764 288.262 80.6555V75.6399H289.903ZM285.215 87.0461C285.788 87.0461 286.309 86.9107 286.778 86.6399C287.247 86.3691 287.611 85.9941 287.872 85.5149C288.142 85.0253 288.278 84.4628 288.278 83.8274C288.278 83.2024 288.142 82.6451 287.872 82.1555C287.611 81.6659 287.247 81.2909 286.778 81.0305C286.309 80.7701 285.788 80.6399 285.215 80.6399C284.632 80.6399 284.106 80.7701 283.637 81.0305C283.179 81.2909 282.814 81.6659 282.543 82.1555C282.273 82.6451 282.137 83.2024 282.137 83.8274C282.137 84.4628 282.273 85.0253 282.543 85.5149C282.814 85.9941 283.179 86.3691 283.637 86.6399C284.106 86.9107 284.632 87.0461 285.215 87.0461ZM293.422 88.4993C293.109 88.4993 292.838 88.3899 292.609 88.1711C292.38 87.942 292.265 87.6555 292.265 87.3118C292.265 86.9784 292.38 86.7024 292.609 86.4836C292.838 86.2545 293.109 86.1399 293.422 86.1399C293.744 86.1399 294.015 86.2493 294.234 86.468C294.453 86.6868 294.562 86.968 294.562 87.3118C294.562 87.6555 294.448 87.942 294.218 88.1711C294 88.3899 293.734 88.4993 293.422 88.4993Z" fill="white"/>
</g>
</g>
<defs>
<clipPath id="clip0_70_14">
<rect width="302.362" height="94.4882" fill="white"/>
</clipPath>
</defs>
</svg>
